<svg xmlns="http://www.w3.org/2000/svg" xmlns:xlink="http://www.w3.org/1999/xlink" viewBox="0 0 681.34 200.36"><defs><style>.cls-1{fill:none;}.cls-2{fill:#231f20;}.cls-3{isolation:isolate;}.cls-4{fill:#fff;}.cls-5{fill:url(#_6_dpi_40_);}.cls-6{fill:#21ff15;}.cls-7{fill:#1a1a1a;}.cls-8{fill:#f916f4;}.cls-9{fill:#ff0;}.cls-10{fill:#fa1017;}.cls-11{fill:#0720f3;}.cls-12,.cls-14{fill:#f42565;}.cls-12,.cls-13,.cls-16{mix-blend-mode:multiply;}.cls-13{fill:#6900ff;}.cls-15{mix-blend-mode:darken;}.cls-16,.cls-17{fill:#fff100;}.cls-18{fill:aqua;}</style><pattern id="_6_dpi_40_" data-name="6 dpi 40%" width="48" height="48" patternTransform="translate(-1625.11 304.76)" patternUnits="userSpaceOnUse" viewBox="0 0 48 48"><rect class="cls-1" width="48" height="48"/><path class="cls-2" d="M24,52.8A4.8,4.8,0,1,0,19.2,48,4.8,4.8,0,0,0,24,52.8Z"/><path class="cls-2" d="M48,52.8A4.8,4.8,0,1,0,43.2,48,4.8,4.8,0,0,0,48,52.8Z"/><path class="cls-2" d="M24,28.8A4.8,4.8,0,1,0,19.2,24,4.8,4.8,0,0,0,24,28.8Z"/><path class="cls-2" d="M48,28.8A4.8,4.8,0,1,0,43.2,24,4.8,4.8,0,0,0,48,28.8Z"/><path class="cls-2" d="M36,40.8A4.8,4.8,0,1,0,31.2,36,4.8,4.8,0,0,0,36,40.8Z"/><path class="cls-2" d="M12,40.8A4.8,4.8,0,1,0,7.2,36,4.8,4.8,0,0,0,12,40.8Z"/><path class="cls-2" d="M36,16.8A4.8,4.8,0,1,0,31.2,12,4.8,4.8,0,0,0,36,16.8Z"/><path class="cls-2" d="M12,16.8A4.8,4.8,0,1,0,7.2,12,4.8,4.8,0,0,0,12,16.8Z"/><path class="cls-2" d="M0,52.8A4.8,4.8,0,0,0,4.8,48,4.8,4.8,0,0,0,0,43.2a4.8,4.8,0,0,0,0,9.6Z"/><path class="cls-2" d="M0,28.8A4.8,4.8,0,0,0,4.8,24,4.8,4.8,0,0,0,0,19.2a4.8,4.8,0,0,0,0,9.6Z"/><path class="cls-2" d="M24,4.8A4.8,4.8,0,0,0,28.8,0a4.8,4.8,0,0,0-9.6,0A4.8,4.8,0,0,0,24,4.8Z"/><path class="cls-2" d="M48,4.8A4.8,4.8,0,0,0,52.8,0a4.8,4.8,0,0,0-9.6,0A4.8,4.8,0,0,0,48,4.8Z"/><path class="cls-2" d="M0,4.8A4.8,4.8,0,0,0,4.8,0,4.8,4.8,0,0,0,0-4.8,4.8,4.8,0,0,0-4.8,0,4.8,4.8,0,0,0,0,4.8Z"/></pattern></defs><title>option 7</title><g class="cls-3"><g id="Layer_1" data-name="Layer 1"><path class="cls-4" d="M136,60.07H94V87.74h14.91v19.44H94v31.64h43.65v19.43H70.23V40.63H136Z"/><path class="cls-4" d="M179.08,122.67a52.63,52.63,0,0,0,.58,8.16,18.2,18.2,0,0,0,2.14,6.42,11.42,11.42,0,0,0,4.28,4.28,15.86,15.86,0,0,0,13.76,0,11.73,11.73,0,0,0,4.2-4.28,18.61,18.61,0,0,0,2.14-6.42,53.89,53.89,0,0,0,.58-8.16v-82h23.72v82q0,11.2-3.13,18.53a29.67,29.67,0,0,1-8.4,11.62,28.38,28.38,0,0,1-12,5.76,65,65,0,0,1-14,1.49,72.93,72.93,0,0,1-14-1.32,28.45,28.45,0,0,1-12-5.35,27.44,27.44,0,0,1-8.4-11.45q-3.13-7.42-3.13-19.28V93.59h23.72Z"/><path class="cls-4" d="M296.66,40.63q14.82,0,23.06,7.49T328,70.94q0,11.86-4.78,19.36t-14.83,9.64v.32q8.91,1.32,13,5.77t5.11,14.33q.33,3.3.49,7.17c.11,2.58.22,5.47.33,8.65q.33,9.39,1,14.33c.66,3.3,2.08,5.55,4.28,6.76v1h-25.7a12.55,12.55,0,0,1-2.3-5.68,61,61,0,0,1-.66-6.67l-.66-22.57q-.33-6.92-3.46-10.87t-10.55-4H276.56v49.75H252.84V40.63ZM286.44,92q8.56,0,13.18-4t4.62-13.59q0-16.31-16.48-16.31h-11.2V92Z"/><path class="cls-4" d="M350.56,74.81A54.81,54.81,0,0,1,356,55.45a30.44,30.44,0,0,1,12.11-12.6q7.9-4.53,21.25-4.53t21.25,4.53a30.38,30.38,0,0,1,12.11,12.6,54.6,54.6,0,0,1,5.44,19.36,228.26,228.26,0,0,1,1.23,24.63,227.4,227.4,0,0,1-1.23,24.71,54.39,54.39,0,0,1-5.44,19.28,28.82,28.82,0,0,1-12.11,12.35q-7.91,4.29-21.25,4.29t-21.25-4.29A28.87,28.87,0,0,1,356,143.43a54.6,54.6,0,0,1-5.44-19.28,227.4,227.4,0,0,1-1.23-24.71A228.26,228.26,0,0,1,350.56,74.81Zm23.07,44.81a55.45,55.45,0,0,0,2.31,13.51,15,15,0,0,0,4.94,7.58,16.26,16.26,0,0,0,17,0q3.21-2.39,4.94-7.58a56,56,0,0,0,2.3-13.51q.59-8.31.58-20.18t-.58-20.1a57.09,57.09,0,0,0-2.3-13.51q-1.74-5.26-4.94-7.66a16.26,16.26,0,0,0-17,0q-3.21,2.4-4.94,7.66a56.53,56.53,0,0,0-2.31,13.51q-.58,8.25-.58,20.1T373.63,119.62Z"/><path class="cls-5" d="M385.07,143a11.55,11.55,0,0,1-4.34-1.94,15,15,0,0,1-4.94-7.57A55.54,55.54,0,0,1,373.48,120c-.37-5.27-.55-11.63-.57-19H349.19a222.79,222.79,0,0,0,1.23,23.57,54.34,54.34,0,0,0,5.43,19.27A29,29,0,0,0,368,156.13c4.42,2.39,10.14,3.77,17.11,4.16Z"/><path class="cls-4" d="M492.28,40.63q9.06,0,15.24,3a28,28,0,0,1,10,8A31.4,31.4,0,0,1,522.92,63a51.17,51.17,0,0,1,1.65,12.93,42.26,42.26,0,0,1-2.72,15.82,28.74,28.74,0,0,1-7.58,11,31.79,31.79,0,0,1-11.78,6.42,51.57,51.57,0,0,1-15.32,2.14H474.49v26.34H450.76v-97ZM485,93.84q7.08,0,11.45-4.28t4.37-13.35q0-8.89-3.79-13.51t-12.69-4.61h-9.88V93.84Z"/><path class="cls-4" d="M609.36,60.07h-42V87.74h39.53v19.44H567.36v31.64H611v19.43H543.63V40.63h65.73Z"/><rect class="cls-6" x="58.79" y="48.81" width="24.44" height="100.77"/><path class="cls-7" d="M259,151.34a2.8,2.8,0,1,0-2.8-2.8A2.8,2.8,0,0,0,259,151.34Z"/><path class="cls-7" d="M259,135.45a2.81,2.81,0,1,0-2.8-2.81A2.81,2.81,0,0,0,259,135.45Z"/><path class="cls-7" d="M259,119.55a2.81,2.81,0,1,0-2.8-2.8A2.81,2.81,0,0,0,259,119.55Z"/><polygon class="cls-7" points="92.58 150.82 97.31 154.49 102.03 150.82 106.77 154.49 111.5 150.82 116.22 154.49 120.95 150.82 124.84 153.84 126.53 151.66 120.95 147.34 116.22 151.01 111.5 147.34 106.77 151.01 102.03 147.34 97.31 151.01 92.58 147.34 87 151.66 88.69 153.84 92.58 150.82"/><rect class="cls-8" x="211.2" y="61.93" width="4.87" height="63.32"/><rect class="cls-9" x="201.49" y="66.77" width="5.37" height="63.32"/><rect class="cls-10" x="215.61" y="61.93" width="4.87" height="63.32"/><rect class="cls-11" x="221.04" y="57.59" width="9.77" height="63.32"/><rect class="cls-6" x="228.58" y="72.3" width="4.89" height="57.79"/><rect class="cls-12" x="252.84" y="49.11" width="23.72" height="17.66"/><rect class="cls-11" x="248.67" y="70.09" width="23.72" height="5.87"/><rect class="cls-11" x="255" y="78.59" width="23.72" height="5.87"/><polygon class="cls-8" points="453.65 147.34 465.29 135.7 476.93 147.34 484.69 147.34 465.29 127.94 445.89 147.34 453.65 147.34"/><polygon class="cls-8" points="453.65 130.61 465.29 118.97 476.93 130.61 484.69 130.61 465.29 111.21 445.89 130.61 453.65 130.61"/><rect class="cls-13" x="448.49" y="51.11" width="10.18" height="49.24"/><rect class="cls-14" x="349.33" y="79.09" width="15.63" height="25.87"/><rect class="cls-14" x="367.13" y="71.65" width="4" height="29.97"/><g class="cls-15"><rect class="cls-2" x="561.18" y="69.46" width="1.71" height="11.33"/><rect class="cls-2" x="561.18" y="69.46" width="1.71" height="11.33" transform="translate(637.16 -486.91) rotate(90)"/><rect class="cls-2" x="561.18" y="69.46" width="1.71" height="11.33" transform="translate(111.5 419.42) rotate(-45)"/><rect class="cls-2" x="561.15" y="69.49" width="1.71" height="11.33" transform="translate(217.75 -375.39) rotate(45)"/></g><g class="cls-15"><rect class="cls-2" x="561.18" y="86.12" width="1.71" height="11.33"/><rect class="cls-2" x="561.18" y="86.12" width="1.71" height="11.33" transform="translate(653.82 -470.25) rotate(90)"/><rect class="cls-2" x="561.18" y="86.12" width="1.71" height="11.33" transform="translate(99.72 424.3) rotate(-45)"/><rect class="cls-2" x="561.15" y="86.14" width="1.71" height="11.33" transform="translate(229.53 -370.51) rotate(45)"/></g><polygon class="cls-16" points="548.04 138.65 548.04 127.94 552.51 127.94 552.51 75.98 541.35 75.98 541.35 160.29 552.51 160.29 552.51 138.65 548.04 138.65"/><rect class="cls-17" x="550.29" y="118.53" width="10.17" height="4.96"/><rect class="cls-17" x="550.29" y="111.2" width="10.17" height="4.96"/><path class="cls-8" d="M63,101.8h0c7.6-3.46,12.86-9.92,12.86-17.84q0-4.17-2.52-4.17A5.29,5.29,0,0,0,72,80a9.64,9.64,0,0,1-2.66.46,6.76,6.76,0,0,1-5.17-2.06,6.61,6.61,0,0,1-1.92-4.64,6.43,6.43,0,0,1,2-4.6,6.76,6.76,0,0,1,5.08-2q4.24,0,7.39,4T79.8,81.71A20,20,0,0,1,75.39,94.8Q71,100.22,63,101.8Z"/><path class="cls-8" d="M42,101.8h0c7.6-3.46,12.87-9.92,12.87-17.84q0-4.17-2.52-4.17A5.29,5.29,0,0,0,51,80a9.64,9.64,0,0,1-2.65.46,6.77,6.77,0,0,1-5.18-2.06,6.61,6.61,0,0,1-1.92-4.64,6.4,6.4,0,0,1,2-4.6,6.73,6.73,0,0,1,5.07-2q4.24,0,7.39,4t3.15,10.61a20.07,20.07,0,0,1-4.4,13.09Q50,100.22,42,101.8Z"/><rect class="cls-4" x="169.41" y="68.61" width="9.27" height="19.96"/><rect class="cls-4" x="169.41" y="54.48" width="9.27" height="8.6"/><rect class="cls-4" x="155.36" y="54.48" width="9.27" height="23.4"/><rect class="cls-4" x="155.36" y="86.73" width="9.27" height="23.4"/><rect class="cls-18" x="101.1" y="85.88" width="25.42" height="18.59"/></g></g></svg>