<svg xmlns="http://www.w3.org/2000/svg" xmlns:xlink="http://www.w3.org/1999/xlink" viewBox="0 0 734.17 157.53"><defs><style>.cls-1,.cls-3{fill:none;}.cls-2{fill:#231f20;}.cls-3{stroke:#231f20;stroke-width:1.44px;}.cls-4{isolation:isolate;}.cls-5{fill:#fff;}.cls-6{fill:url(#_10_dpi_30_);}.cls-7{fill:#f916f4;}.cls-8{fill:#ff0;}.cls-9{fill:#fa1017;}.cls-10{fill:#0720f3;}.cls-11{fill:#21ff15;}.cls-12{mix-blend-mode:darken;}.cls-13{fill:#1a1a1a;}.cls-14,.cls-17{mix-blend-mode:multiply;}.cls-15{fill:#6900ff;}.cls-16{fill:url(#_10_lpi_20_);}.cls-17{fill:#fff100;}.cls-18{fill:#f42565;}</style><pattern id="_10_dpi_30_" data-name="10 dpi 30%" width="28.8" height="28.8" patternTransform="translate(0.05 0.48)" patternUnits="userSpaceOnUse" viewBox="0 0 28.8 28.8"><rect class="cls-1" width="28.8" height="28.8"/><path class="cls-2" d="M28.8,31a2.16,2.16,0,1,0-2.16-2.16A2.16,2.16,0,0,0,28.8,31Z"/><path class="cls-2" d="M14.4,31a2.16,2.16,0,1,0-2.16-2.16A2.16,2.16,0,0,0,14.4,31Z"/><path class="cls-2" d="M28.8,16.56a2.16,2.16,0,1,0-2.16-2.16A2.16,2.16,0,0,0,28.8,16.56Z"/><path class="cls-2" d="M14.4,16.56a2.16,2.16,0,1,0-2.16-2.16A2.16,2.16,0,0,0,14.4,16.56Z"/><path class="cls-2" d="M7.2,23.76A2.16,2.16,0,1,0,5,21.6,2.16,2.16,0,0,0,7.2,23.76Z"/><path class="cls-2" d="M21.6,23.76a2.16,2.16,0,1,0-2.16-2.16A2.16,2.16,0,0,0,21.6,23.76Z"/><path class="cls-2" d="M7.2,9.36A2.16,2.16,0,1,0,5,7.2,2.16,2.16,0,0,0,7.2,9.36Z"/><path class="cls-2" d="M21.6,9.36A2.16,2.16,0,1,0,19.44,7.2,2.16,2.16,0,0,0,21.6,9.36Z"/><path class="cls-2" d="M0,31A2.16,2.16,0,0,0,2.16,28.8,2.16,2.16,0,0,0,0,26.64,2.16,2.16,0,0,0,0,31Z"/><path class="cls-2" d="M0,16.56A2.16,2.16,0,0,0,2.16,14.4,2.16,2.16,0,0,0,0,12.24a2.16,2.16,0,1,0,0,4.32Z"/><path class="cls-2" d="M28.8,2.16A2.16,2.16,0,0,0,31,0a2.16,2.16,0,0,0-4.32,0A2.16,2.16,0,0,0,28.8,2.16Z"/><path class="cls-2" d="M14.4,2.16A2.16,2.16,0,0,0,16.56,0a2.16,2.16,0,1,0-4.32,0A2.16,2.16,0,0,0,14.4,2.16Z"/><path class="cls-2" d="M0,2.16A2.16,2.16,0,0,0,2.16,0,2.16,2.16,0,0,0,0-2.16,2.16,2.16,0,0,0-2.16,0,2.16,2.16,0,0,0,0,2.16Z"/></pattern><pattern id="_10_lpi_20_" data-name="10 lpi 20%" width="72" height="72" patternTransform="translate(-1375.22 789.3) scale(0.47)" patternUnits="userSpaceOnUse" viewBox="0 0 72 72"><rect class="cls-1" width="72" height="72"/><line class="cls-3" x1="71.75" y1="68.4" x2="144.25" y2="68.4"/><line class="cls-3" x1="71.75" y1="54" x2="144.25" y2="54"/><line class="cls-3" x1="71.75" y1="39.6" x2="144.25" y2="39.6"/><line class="cls-3" x1="71.75" y1="25.2" x2="144.25" y2="25.2"/><line class="cls-3" x1="71.75" y1="10.8" x2="144.25" y2="10.8"/><line class="cls-3" x1="71.75" y1="61.2" x2="144.25" y2="61.2"/><line class="cls-3" x1="71.75" y1="46.8" x2="144.25" y2="46.8"/><line class="cls-3" x1="71.75" y1="32.4" x2="144.25" y2="32.4"/><line class="cls-3" x1="71.75" y1="18" x2="144.25" y2="18"/><line class="cls-3" x1="71.75" y1="3.6" x2="144.25" y2="3.6"/><line class="cls-3" x1="-0.25" y1="68.4" x2="72.25" y2="68.4"/><line class="cls-3" x1="-0.25" y1="54" x2="72.25" y2="54"/><line class="cls-3" x1="-0.25" y1="39.6" x2="72.25" y2="39.6"/><line class="cls-3" x1="-0.25" y1="25.2" x2="72.25" y2="25.2"/><line class="cls-3" x1="-0.25" y1="10.8" x2="72.25" y2="10.8"/><line class="cls-3" x1="-0.25" y1="61.2" x2="72.25" y2="61.2"/><line class="cls-3" x1="-0.25" y1="46.8" x2="72.25" y2="46.8"/><line class="cls-3" x1="-0.25" y1="32.4" x2="72.25" y2="32.4"/><line class="cls-3" x1="-0.25" y1="18" x2="72.25" y2="18"/><line class="cls-3" x1="-0.25" y1="3.6" x2="72.25" y2="3.6"/><line class="cls-3" x1="-72.25" y1="68.4" x2="0.25" y2="68.4"/><line class="cls-3" x1="-72.25" y1="54" x2="0.25" y2="54"/><line class="cls-3" x1="-72.25" y1="39.6" x2="0.25" y2="39.6"/><line class="cls-3" x1="-72.25" y1="25.2" x2="0.25" y2="25.2"/><line class="cls-3" x1="-72.25" y1="10.8" x2="0.25" y2="10.8"/><line class="cls-3" x1="-72.25" y1="61.2" x2="0.25" y2="61.2"/><line class="cls-3" x1="-72.25" y1="46.8" x2="0.25" y2="46.8"/><line class="cls-3" x1="-72.25" y1="32.4" x2="0.25" y2="32.4"/><line class="cls-3" x1="-72.25" y1="18" x2="0.25" y2="18"/><line class="cls-3" x1="-72.25" y1="3.6" x2="0.25" y2="3.6"/></pattern></defs><title>option 7</title><g class="cls-4"><g id="Layer_1" data-name="Layer 1"><path class="cls-5" d="M70.82,41.83a36.66,36.66,0,0,0-.93,5.92h20a18.72,18.72,0,0,1,.47-3.38,8.84,8.84,0,0,1,1-2.54Z"/><path class="cls-5" d="M93.81,55.5a13.64,13.64,0,0,1-1.31-4.59H72.23c0,.25,0,.49,0,.74,0,1.34.07,2.61.18,3.85Z"/><path class="cls-5" d="M136.48,87.07a19.71,19.71,0,0,0-3-6.93,25.8,25.8,0,0,0-5.81-5.88A47.93,47.93,0,0,0,118.28,69l-15.54-6.72c-3.59-1.48-6.12-3.08-7.62-4.79H72.61a29.76,29.76,0,0,0,1.15,5,22.18,22.18,0,0,0,4.83,8.26A31.37,31.37,0,0,0,86.78,77a73.21,73.21,0,0,0,11.62,4.9,78.12,78.12,0,0,1,8.47,3.29,23.86,23.86,0,0,1,4,2.32h25.71C136.53,87.36,136.51,87.21,136.48,87.07Z"/><path class="cls-5" d="M119,99a16.52,16.52,0,0,1-.43,3.86h20.86a44.78,44.78,0,0,0,.57-7.36,41.48,41.48,0,0,0-.41-6H115.79a11.05,11.05,0,0,1,2.28,3.66A16.6,16.6,0,0,1,119,99Z"/><path class="cls-5" d="M115.21,104.83a9.3,9.3,0,0,1-2.6,3.45,12.93,12.93,0,0,1-8.33,3,16.54,16.54,0,0,1-6.51-1.12,10.37,10.37,0,0,1-4.13-3.08,11.09,11.09,0,0,1-2.1-4.83A32.9,32.9,0,0,1,91,95.89V93H70.82V97q0,13.86,7.35,21.28t24.43,7.42q16.38,0,25.55-7.21,6.18-4.87,8.19-13.67Z"/><path class="cls-5" d="M131.79,36.88a22.25,22.25,0,0,0-6.44-8.4,25.91,25.91,0,0,0-9.8-4.76,49.29,49.29,0,0,0-12.39-1.47q-14.43,0-22.68,7.28a22.45,22.45,0,0,0-6.23,9.3H96.82a11.5,11.5,0,0,1,1.44-.76,13.88,13.88,0,0,1,5.6-1q5.88,0,8.4,3.85t2.52,11H134.1v-2.8A29.56,29.56,0,0,0,131.79,36.88Z"/><path class="cls-5" d="M195.91,42.06q-2.59-5-9.45-5a9.4,9.4,0,0,0-6.23,2,13.34,13.34,0,0,0-3.85,6.58,55.47,55.47,0,0,0-2,11.9q-.57,7.35-.56,18a173,173,0,0,0,.77,18.34A40.45,40.45,0,0,0,177,104.78q1.61,3.84,4.06,5.18a11.76,11.76,0,0,0,5.67,1.33,13.59,13.59,0,0,0,5-.91,8.44,8.44,0,0,0,4-3.64,23.87,23.87,0,0,0,2.66-7.7,70.61,70.61,0,0,0,1-13.09H219.5a90.34,90.34,0,0,1-1.26,15.4,35,35,0,0,1-4.69,12.74,23.38,23.38,0,0,1-9.66,8.54q-6.24,3.08-16.17,3.08-11.34,0-18.06-3.64a24.6,24.6,0,0,1-10.29-10.5,46.35,46.35,0,0,1-4.62-16.38,192.63,192.63,0,0,1-1.05-21,193,193,0,0,1,1.05-20.93,46.32,46.32,0,0,1,4.62-16.45A25.78,25.78,0,0,1,169.66,26.1q6.72-3.86,18.06-3.85,10.77,0,17,3.5A23.8,23.8,0,0,1,214,34.64a30.92,30.92,0,0,1,3.85,11.62A96.21,96.21,0,0,1,218.66,58H198.5Q198.5,47,195.91,42.06Z"/><path class="cls-5" d="M259.53,41.75V62.43h23.52V24.21h20.16V94.5H283.05V79.79H259.53v44.38H239.37V41.75Z"/><path class="cls-5" d="M359.33,40.73H345.78V64.25h33.59V80.77H345.78v26.88h37.09v16.52H325.62v-100h33.71Z"/><rect class="cls-5" x="399.42" y="56.16" width="12.33" height="19.33"/><rect class="cls-5" x="413.75" y="56.16" width="5.83" height="19.33"/><path class="cls-5" d="M467.15,52.77a43.48,43.48,0,0,0-4.83-15.33,24.35,24.35,0,0,0-10-9.8q-6.44-3.43-16.94-3.43h-33V54.16h20.16V39.05H431c3.83,0,6.88.72,9.17,2.17a13.28,13.28,0,0,1,5.18,6.44,36.65,36.65,0,0,1,2.31,10.71q.56,6.43.56,15,0,10.22-.63,17.08a35.25,35.25,0,0,1-2.52,11.06,12.5,12.5,0,0,1-5.11,6,17.35,17.35,0,0,1-8.54,1.82h-9V89.83H402.33v34.34h31.78q10.08,0,16.66-3.08a24.27,24.27,0,0,0,10.5-9.38,43.76,43.76,0,0,0,5.53-16,142.5,142.5,0,0,0,1.61-22.89A144.51,144.51,0,0,0,467.15,52.77Z"/><path class="cls-6" d="M467.2,52.89a43.61,43.61,0,0,0-4.83-15.33,24.42,24.42,0,0,0-10-9.8q-6.44-3.44-16.94-3.43h-.71v15.1a14.17,14.17,0,0,1,5.54,1.91,13.37,13.37,0,0,1,5.18,6.44,36.8,36.8,0,0,1,2.31,10.71q.56,6.43.56,15,0,10.22-.63,17.08a35.25,35.25,0,0,1-2.52,11.06,12.45,12.45,0,0,1-5.11,6,14.35,14.35,0,0,1-5.33,1.62v15c6.47-.06,11.85-1.07,16.11-3.07a24.21,24.21,0,0,0,10.5-9.38,43.7,43.7,0,0,0,5.53-16,142.41,142.41,0,0,0,1.61-22.89A144.61,144.61,0,0,0,467.2,52.89Z"/><rect class="cls-5" x="404.69" y="77.5" width="20.16" height="10.33"/><rect class="cls-5" x="488.85" y="24.21" width="20.16" height="26.29"/><rect class="cls-5" x="491.18" y="52.5" width="20.16" height="12"/><rect class="cls-5" x="486.62" y="66.5" width="20.16" height="7.33"/><rect class="cls-5" x="534.2" y="24.21" width="20.16" height="64.62"/><path class="cls-5" d="M532.53,90.83v3.1a44.82,44.82,0,0,1-.49,6.93,15.69,15.69,0,0,1-1.82,5.46,10,10,0,0,1-3.57,3.64A13.51,13.51,0,0,1,515,110a9.78,9.78,0,0,1-3.64-3.64,15.69,15.69,0,0,1-1.82-5.46,44.82,44.82,0,0,1-.49-6.93V75.83H488.85v18.1q0,10.08,2.66,16.38a23.31,23.31,0,0,0,7.14,9.73,24.31,24.31,0,0,0,10.22,4.55,62.55,62.55,0,0,0,11.9,1.12,55.35,55.35,0,0,0,11.9-1.26,24.28,24.28,0,0,0,10.22-4.9,25.11,25.11,0,0,0,7.14-9.87q2.65-6.24,2.66-15.75v-3.1Z"/><polygon class="cls-5" points="593.99 107.65 593.99 65 573.83 65 573.83 124.17 629.69 124.17 629.69 107.65 593.99 107.65"/><path class="cls-5" d="M683,40.73H667.21V64.25h33.6V80.77h-33.6v26.88h37.1v16.52H647.05v-100h36Z"/><rect class="cls-5" x="239.37" y="20.42" width="15.63" height="17"/><rect class="cls-5" x="256.84" y="15.71" width="3.76" height="17"/><rect class="cls-5" x="256.84" y="34.78" width="3.76" height="3.76"/><rect class="cls-5" x="283.05" y="100.67" width="20.16" height="12.58"/><rect class="cls-5" x="283.05" y="116.24" width="12.58" height="12.58"/><rect class="cls-5" x="298.33" y="116.24" width="4.88" height="12.58"/><rect class="cls-5" x="361.67" y="28.25" width="16.81" height="16.81"/><rect class="cls-5" x="590.27" y="19.95" width="3.06" height="42.28"/><rect class="cls-5" x="596.38" y="19.95" width="3.06" height="42.28"/><rect class="cls-5" x="577.93" y="19.95" width="3.06" height="42.28"/><rect class="cls-5" x="584.05" y="19.95" width="3.06" height="42.28"/><rect class="cls-5" x="685.75" y="21.5" width="16.25" height="10.5"/><rect class="cls-5" x="685.75" y="34.2" width="16.25" height="4.23"/><polygon class="cls-7" points="327.19 105.59 336.51 96.28 345.82 105.59 352.03 105.59 336.51 90.07 320.99 105.59 327.19 105.59"/><polygon class="cls-7" points="327.19 92.2 336.51 82.89 345.82 92.2 352.03 92.2 336.51 76.68 320.99 92.2 327.19 92.2"/><rect class="cls-7" x="242.69" y="65.74" width="3.52" height="45.82"/><rect class="cls-8" x="235.67" y="69.24" width="3.89" height="45.82"/><rect class="cls-9" x="245.88" y="65.74" width="3.52" height="45.82"/><rect class="cls-10" x="249.81" y="62.6" width="7.07" height="45.82"/><rect class="cls-11" x="255.27" y="73.24" width="3.54" height="41.82"/><rect class="cls-11" x="585.3" y="77.5" width="12.85" height="52.99"/><path class="cls-7" d="M587.49,105.36h0c4-1.82,6.77-5.22,6.77-9.38,0-1.46-.44-2.19-1.33-2.19a2.92,2.92,0,0,0-.69.1,5.06,5.06,0,0,1-1.4.25,3.56,3.56,0,0,1-2.72-1.09,3.49,3.49,0,0,1-1-2.44,3.38,3.38,0,0,1,1-2.42,3.56,3.56,0,0,1,2.67-1.06,4.82,4.82,0,0,1,3.88,2.09,8.69,8.69,0,0,1,1.66,5.58,10.51,10.51,0,0,1-2.32,6.88A10.72,10.72,0,0,1,587.49,105.36Z"/><path class="cls-7" d="M576.45,105.36h0c4-1.82,6.76-5.22,6.76-9.38q0-2.19-1.32-2.19a2.92,2.92,0,0,0-.7.1,5,5,0,0,1-1.39.25,3.55,3.55,0,0,1-2.72-1.09,3.39,3.39,0,0,1,0-4.86,3.56,3.56,0,0,1,2.67-1.06,4.85,4.85,0,0,1,3.89,2.09,8.74,8.74,0,0,1,1.65,5.58,10.55,10.55,0,0,1-2.31,6.88A10.78,10.78,0,0,1,576.45,105.36Z"/><g class="cls-12"><rect class="cls-2" x="543.42" y="42.17" width="1.71" height="11.33"/><rect class="cls-2" x="543.42" y="42.17" width="1.71" height="11.33" transform="translate(592.11 -496.44) rotate(90)"/><rect class="cls-2" x="543.42" y="42.17" width="1.71" height="11.33" transform="translate(125.59 398.87) rotate(-45)"/><rect class="cls-2" x="543.4" y="42.2" width="1.71" height="11.33" transform="translate(193.25 -370.83) rotate(45)"/></g><g class="cls-12"><rect class="cls-2" x="543.42" y="58.83" width="1.71" height="11.33"/><rect class="cls-2" x="543.42" y="58.83" width="1.71" height="11.33" transform="translate(608.77 -479.78) rotate(90)"/><rect class="cls-2" x="543.42" y="58.83" width="1.71" height="11.33" transform="translate(113.81 403.75) rotate(-45)"/><rect class="cls-2" x="543.4" y="58.86" width="1.71" height="11.33" transform="translate(205.03 -365.95) rotate(45)"/></g><polygon class="cls-13" points="661.49 117.76 666.22 121.43 670.95 117.76 675.68 121.43 680.41 117.76 685.14 121.43 689.87 117.76 693.75 120.78 695.44 118.6 689.87 114.28 685.14 117.95 680.41 114.28 675.68 117.95 670.95 114.28 666.22 117.95 661.49 114.28 655.92 118.6 657.6 120.78 661.49 117.76"/><g class="cls-14"><rect class="cls-15" x="396.73" y="25.52" width="23.72" height="5.87"/><rect class="cls-15" x="403.06" y="34.02" width="23.72" height="5.87"/></g><rect class="cls-16" x="641.41" y="41.05" width="17.89" height="60.22"/><rect class="cls-17" x="643.7" y="36.83" width="17.89" height="60.22"/><rect class="cls-11" x="643.7" y="30.39" width="17.89" height="9.38"/><path class="cls-7" d="M200.77,113.25a6.81,6.81,0,1,0,6.81-6.81A6.81,6.81,0,0,0,200.77,113.25Zm9.53,0a2.72,2.72,0,1,1-2.72-2.73A2.72,2.72,0,0,1,210.3,113.25Z"/><rect class="cls-11" x="157.84" y="56.95" width="4.41" height="39.77"/><rect class="cls-11" x="164.84" y="56.95" width="4.41" height="39.77"/><rect class="cls-11" x="171.59" y="56.95" width="4.41" height="39.77"/><g class="cls-14"><rect class="cls-18" x="119.34" y="94.75" width="6.28" height="18.48"/><rect class="cls-18" x="130.16" y="94.75" width="6.28" height="18.48"/></g><rect class="cls-9" x="488.85" y="75.83" width="20.16" height="20.16"/></g></g></svg>