<svg xmlns="http://www.w3.org/2000/svg" xmlns:xlink="http://www.w3.org/1999/xlink" viewBox="0 0 628.62 169.27"><defs><style>.cls-1,.cls-3{fill:none;}.cls-2{fill:#231f20;}.cls-3{stroke:#231f20;stroke-width:1.44px;}.cls-4{isolation:isolate;}.cls-5{fill:#fff;}.cls-6{fill:#0bf7eb;}.cls-7{fill:#f42565;}.cls-8{fill:url(#_10_lpi_20_);}.cls-9{fill:#fff100;}.cls-13,.cls-9{mix-blend-mode:multiply;}.cls-10{fill:url(#_10_dpi_40_);}.cls-11{fill:#f916f4;}.cls-12{fill:#071ff2;}.cls-12,.cls-17{mix-blend-mode:darken;}.cls-13,.cls-16{fill:#21ff15;}.cls-14{fill:#fc1526;}.cls-15{fill:#1a1a1a;}</style><pattern id="_10_lpi_20_" data-name="10 lpi 20%" width="72" height="72" patternTransform="translate(-1977.65 462.98) scale(0.47)" patternUnits="userSpaceOnUse" viewBox="0 0 72 72"><rect class="cls-1" width="72" height="72"/><line class="cls-3" x1="71.75" y1="68.4" x2="144.25" y2="68.4"/><line class="cls-3" x1="71.75" y1="54" x2="144.25" y2="54"/><line class="cls-3" x1="71.75" y1="39.6" x2="144.25" y2="39.6"/><line class="cls-3" x1="71.75" y1="25.2" x2="144.25" y2="25.2"/><line class="cls-3" x1="71.75" y1="10.8" x2="144.25" y2="10.8"/><line class="cls-3" x1="71.75" y1="61.2" x2="144.25" y2="61.2"/><line class="cls-3" x1="71.75" y1="46.8" x2="144.25" y2="46.8"/><line class="cls-3" x1="71.75" y1="32.4" x2="144.25" y2="32.4"/><line class="cls-3" x1="71.75" y1="18" x2="144.25" y2="18"/><line class="cls-3" x1="71.75" y1="3.6" x2="144.25" y2="3.6"/><line class="cls-3" x1="-0.25" y1="68.4" x2="72.25" y2="68.4"/><line class="cls-3" x1="-0.25" y1="54" x2="72.25" y2="54"/><line class="cls-3" x1="-0.25" y1="39.6" x2="72.25" y2="39.6"/><line class="cls-3" x1="-0.25" y1="25.2" x2="72.25" y2="25.2"/><line class="cls-3" x1="-0.25" y1="10.8" x2="72.25" y2="10.8"/><line class="cls-3" x1="-0.25" y1="61.2" x2="72.25" y2="61.2"/><line class="cls-3" x1="-0.25" y1="46.8" x2="72.25" y2="46.8"/><line class="cls-3" x1="-0.25" y1="32.4" x2="72.25" y2="32.4"/><line class="cls-3" x1="-0.25" y1="18" x2="72.25" y2="18"/><line class="cls-3" x1="-0.25" y1="3.6" x2="72.25" y2="3.6"/><line class="cls-3" x1="-72.25" y1="68.4" x2="0.25" y2="68.4"/><line class="cls-3" x1="-72.25" y1="54" x2="0.25" y2="54"/><line class="cls-3" x1="-72.25" y1="39.6" x2="0.25" y2="39.6"/><line class="cls-3" x1="-72.25" y1="25.2" x2="0.25" y2="25.2"/><line class="cls-3" x1="-72.25" y1="10.8" x2="0.25" y2="10.8"/><line class="cls-3" x1="-72.25" y1="61.2" x2="0.25" y2="61.2"/><line class="cls-3" x1="-72.25" y1="46.8" x2="0.25" y2="46.8"/><line class="cls-3" x1="-72.25" y1="32.4" x2="0.25" y2="32.4"/><line class="cls-3" x1="-72.25" y1="18" x2="0.25" y2="18"/><line class="cls-3" x1="-72.25" y1="3.6" x2="0.25" y2="3.6"/></pattern><pattern id="_10_dpi_40_" data-name="10 dpi 40%" width="28.8" height="28.8" patternTransform="translate(-1223.08 249.74)" patternUnits="userSpaceOnUse" viewBox="0 0 28.8 28.8"><rect class="cls-1" width="28.8" height="28.8"/><path class="cls-2" d="M28.8,31.68a2.88,2.88,0,1,0-2.88-2.88A2.88,2.88,0,0,0,28.8,31.68Z"/><path class="cls-2" d="M14.4,31.68a2.88,2.88,0,1,0-2.88-2.88A2.88,2.88,0,0,0,14.4,31.68Z"/><path class="cls-2" d="M28.8,17.28a2.88,2.88,0,1,0-2.88-2.88A2.88,2.88,0,0,0,28.8,17.28Z"/><path class="cls-2" d="M14.4,17.28a2.88,2.88,0,1,0-2.88-2.88A2.88,2.88,0,0,0,14.4,17.28Z"/><path class="cls-2" d="M7.2,24.48A2.88,2.88,0,1,0,4.32,21.6,2.88,2.88,0,0,0,7.2,24.48Z"/><path class="cls-2" d="M21.6,24.48a2.88,2.88,0,1,0-2.88-2.88A2.88,2.88,0,0,0,21.6,24.48Z"/><path class="cls-2" d="M7.2,10.08A2.88,2.88,0,1,0,4.32,7.2,2.88,2.88,0,0,0,7.2,10.08Z"/><path class="cls-2" d="M21.6,10.08A2.88,2.88,0,1,0,18.72,7.2,2.88,2.88,0,0,0,21.6,10.08Z"/><path class="cls-2" d="M0,31.68A2.88,2.88,0,0,0,2.88,28.8,2.88,2.88,0,0,0,0,25.92a2.88,2.88,0,0,0,0,5.76Z"/><path class="cls-2" d="M0,17.28A2.88,2.88,0,0,0,2.88,14.4,2.88,2.88,0,0,0,0,11.52a2.88,2.88,0,0,0,0,5.76Z"/><path class="cls-2" d="M28.8,2.88A2.88,2.88,0,0,0,31.68,0a2.88,2.88,0,0,0-5.76,0A2.88,2.88,0,0,0,28.8,2.88Z"/><path class="cls-2" d="M14.4,2.88A2.88,2.88,0,0,0,17.28,0a2.88,2.88,0,0,0-5.76,0A2.88,2.88,0,0,0,14.4,2.88Z"/><path class="cls-2" d="M0,2.88A2.88,2.88,0,0,0,2.88,0,2.88,2.88,0,0,0,0-2.88,2.88,2.88,0,0,0-2.88,0,2.88,2.88,0,0,0,0,2.88Z"/></pattern></defs><title>option 7</title><g class="cls-4"><g id="Layer_1" data-name="Layer 1"><path class="cls-5" d="M65.43,59.84H87.76v68H65.43Z"/><path class="cls-6" d="M76.59,18.81h16v68h-16Z"/><path class="cls-7" d="M68.56,21.47h6v68h-6Z"/><path class="cls-5" d="M161.72,92.92H162v-40h8.19v74.92H157.07L129.78,50.28h-.31v77.53H109V17.1h25.74Z"/><path class="cls-5" d="M299,59.89h.31L314.79,17.1H339L310.29,84.24v43.57H288V84.24L259.28,17.1H284.4Z"/><path class="cls-5" d="M368.84,91.45c-.21-3-.35-6.28-.44-9.94H346.13c.14,3.71.35,7.27.65,10.67h22.11C368.88,91.93,368.85,91.69,368.84,91.45Z"/><path class="cls-5" d="M423.71,49.27a51.42,51.42,0,0,0-5.11-18.22,28.69,28.69,0,0,0-11.4-11.86q-7.44-4.26-20-4.26t-20,4.26a28.57,28.57,0,0,0-11.4,11.86,51.42,51.42,0,0,0-5.12,18.22,215.22,215.22,0,0,0-1.16,23.18c0,2.42,0,2.68.11,5h22.28c0-2.23-.06-2.5-.06-5q0-11.16.54-18.92a53.94,53.94,0,0,1,2.17-12.71,14.21,14.21,0,0,1,4.65-7.21,15.29,15.29,0,0,1,16,0,14.08,14.08,0,0,1,4.65,7.21A53.43,53.43,0,0,1,402,53.53q.56,7.77.55,18.92t-.55,19a52.42,52.42,0,0,1-2.17,12.71,14,14,0,0,1-4.65,7.13,15.29,15.29,0,0,1-16,0,14.17,14.17,0,0,1-4.65-7.13,47,47,0,0,1-1.93-10h-22.1l.15,1.53a51.21,51.21,0,0,0,5.12,18.14,27.12,27.12,0,0,0,11.4,11.63q7.44,4,20,4t20-4a27.23,27.23,0,0,0,11.4-11.63,51.21,51.21,0,0,0,5.11-18.14,212,212,0,0,0,1.17-23.26A212.55,212.55,0,0,0,423.71,49.27Z"/><path class="cls-5" d="M463.64,94.31a50.37,50.37,0,0,0,.54,7.68,17.26,17.26,0,0,0,2,6.05,10.75,10.75,0,0,0,4,4,15,15,0,0,0,12.95,0,11,11,0,0,0,3.95-4,17.68,17.68,0,0,0,2-6.05,50.37,50.37,0,0,0,.54-7.68V17.1H512V94.31q0,10.55-2.95,17.45a27.88,27.88,0,0,1-7.91,10.93,26.79,26.79,0,0,1-11.32,5.43,61.33,61.33,0,0,1-13.18,1.39,68.44,68.44,0,0,1-13.18-1.24,26.74,26.74,0,0,1-11.32-5,25.85,25.85,0,0,1-7.9-10.77q-3-7-2.95-18.15V53.84h22.33Z"/><path class="cls-5" d="M572,17.1q14,0,21.71,7t7.75,21.48q0,11.16-4.5,18.22t-14,9.07v.31q8.37,1.24,12.25,5.42t4.8,13.49q.31,3.1.47,6.75c.1,2.43.21,5.14.31,8.14q.32,8.84.93,13.49.93,4.65,4,6.36v.93H581.63a12,12,0,0,1-2.17-5.35,59.36,59.36,0,0,1-.62-6.28l-.62-21.25q-.32-6.51-3.25-10.23T565,81H553.1V99.4H530.78V17.1Zm-9.61,48.37q8.05,0,12.4-3.8t4.34-12.79q0-15.35-15.5-15.35H553.1V65.47Z"/><rect class="cls-5" x="436.79" y="29.87" width="24.45" height="20.58"/><rect class="cls-5" x="441.04" y="20.83" width="24.45" height="5.15"/><rect class="cls-8" x="283.78" y="73.51" width="17.89" height="60.22"/><rect class="cls-9" x="286.07" y="69.29" width="17.89" height="60.22"/><rect class="cls-10" x="485.42" y="20.14" width="16.46" height="90.52"/><rect class="cls-9" x="485.42" y="20.14" width="16.46" height="90.52"/><path class="cls-11" d="M458.67,60.11a8.76,8.76,0,0,0,9.88-7.45,8.33,8.33,0,0,0,.08-1.22h-1.42a7,7,0,0,1-.06,1,7.35,7.35,0,0,1-7.26,6.32,9.06,9.06,0,0,1-1-.07,7.32,7.32,0,0,1-6.3-7.27h-1.42a8.72,8.72,0,0,0,7.53,8.67Z"/><path class="cls-11" d="M459.23,56.13a4.74,4.74,0,0,0,5.34-4,4.87,4.87,0,0,0,0-.66h-1.42a3.46,3.46,0,0,1,0,.46,3.35,3.35,0,0,1-1.29,2.19,3.27,3.27,0,0,1-2,.67,3.89,3.89,0,0,1-.47,0,3.29,3.29,0,0,1-2.18-1.28,3.25,3.25,0,0,1-.66-2h-1.42a4.61,4.61,0,0,0,.95,2.85A4.7,4.7,0,0,0,459.23,56.13Z"/><path class="cls-11" d="M449.68,59.13a12.78,12.78,0,0,0,22.86-5.91,13.31,13.31,0,0,0,.12-1.78h-1.42a10.49,10.49,0,0,1-.11,1.58,11.36,11.36,0,0,1-11.22,9.78,12.56,12.56,0,0,1-1.61-.11,11.34,11.34,0,0,1-9.77-11.25h-1.42A12.64,12.64,0,0,0,449.68,59.13Z"/><path class="cls-11" d="M446.47,61.55a16.79,16.79,0,0,0,30.21-10.11h-1.42a15.38,15.38,0,0,1-15.37,15.38,15.76,15.76,0,0,1-2.15-.15A15.38,15.38,0,0,1,444.5,51.44h-1.41A16.6,16.6,0,0,0,446.47,61.55Z"/><path class="cls-11" d="M396.72,94.72a6.81,6.81,0,1,0,6.81-6.81A6.81,6.81,0,0,0,396.72,94.72Zm9.53,0A2.73,2.73,0,1,1,403.53,92,2.72,2.72,0,0,1,406.25,94.72Z"/><rect class="cls-5" x="173.28" y="52.79" width="3.06" height="75.02"/><rect class="cls-5" x="179.4" y="52.79" width="3.06" height="75.02"/><rect class="cls-5" x="170.22" y="10.51" width="3.06" height="42.28"/><rect class="cls-5" x="176.34" y="10.51" width="3.06" height="42.28"/><rect class="cls-5" x="157.88" y="10.51" width="3.06" height="42.28"/><rect class="cls-5" x="164" y="10.51" width="3.06" height="42.28"/><rect class="cls-12" x="353.79" y="35.29" width="2.37" height="39.77"/><rect class="cls-12" x="360.54" y="35.29" width="2.37" height="39.77"/><rect class="cls-12" x="367.3" y="35.29" width="2.37" height="39.77"/><rect class="cls-11" x="114.88" y="99.4" width="18" height="32.38"/><rect class="cls-13" x="114.88" y="17.1" width="18" height="80.6"/><rect class="cls-5" x="534.88" y="101.59" width="7.36" height="34.25"/><rect class="cls-5" x="544.63" y="101.59" width="12" height="12"/><rect class="cls-5" x="544.63" y="115.81" width="12" height="6.79"/><rect class="cls-11" x="530.78" y="17.1" width="22.33" height="42.75"/><rect class="cls-14" x="541.94" y="50.85" width="13.88" height="42.75"/><path class="cls-15" d="M550.82,82.11l-9.29-9.3-9.3,9.3,9.3,9.29Zm-9.29-5.58,5.57,5.58-5.57,5.57L536,82.11Z"/><rect class="cls-16" x="286.07" y="62.84" width="17.89" height="9.38"/><g class="cls-17"><rect class="cls-2" x="116.91" y="109.72" width="2.87" height="18.97"/><rect class="cls-2" x="116.91" y="109.72" width="2.87" height="18.97" transform="translate(237.54 0.86) rotate(90)"/><rect class="cls-2" x="116.91" y="109.72" width="2.87" height="18.97" transform="translate(-49.63 118.59) rotate(-45)"/><rect class="cls-2" x="116.86" y="109.76" width="2.87" height="18.97" transform="translate(118.96 -48.72) rotate(45)"/></g></g></g></svg>